<svg width="50" height="50" viewBox="0 0 50 50" fill="none" xmlns="http://www.w3.org/2000/svg">
<g clip-path="url(#clip0_175_244)">
<path d="M35.87 2.48066C32.5833 0.891406 28.896 0 25.0005 0C21.105 0 17.4177 0.891406 14.131 2.48066L11.957 25L14.131 47.5193C17.4177 49.1086 21.105 50 25.0005 50C28.896 50 32.5833 49.1086 35.87 47.5193L38.0439 25L35.87 2.48066Z" fill="#D80027"/>
<path d="M24.9994 16.3047L27.1576 22.9472H34.1428L28.492 27.053L30.6503 33.6959L24.9994 29.5903L19.3485 33.6959L21.5072 27.053L15.8564 22.9472H22.8411L24.9994 16.3047Z" fill="#FFDA44"/>
<path d="M14.1305 2.48145C5.76816 6.525 0 15.0884 0 24.9999C0 34.9114 5.76816 43.4748 14.1305 47.5184V2.48145Z" fill="#496E2D"/>
<path d="M35.8691 2.48145V47.5184C44.2314 43.4748 49.9996 34.9113 49.9996 24.9999C49.9996 15.0885 44.2314 6.525 35.8691 2.48145Z" fill="#FFDA44"/>
</g>
<defs>
<clipPath id="clip0_175_244">
<rect width="50" height="50" fill="white"/>
</clipPath>
</defs>
</svg>
