<svg width="50" height="51" viewBox="0 0 50 51" fill="none" xmlns="http://www.w3.org/2000/svg">
<g clip-path="url(#clip0_175_249)">
<path d="M25 50.9092C38.8071 50.9092 50 39.7163 50 25.9092C50 12.1021 38.8071 0.90918 25 0.90918C11.1929 0.90918 0 12.1021 0 25.9092C0 39.7163 11.1929 50.9092 25 50.9092Z" fill="#F0F0F0"/>
<path d="M24.9998 0.90918C15.0883 0.90918 6.52422 6.67725 2.48047 15.0396H47.519C43.4754 6.67725 34.9112 0.90918 24.9998 0.90918V0.90918Z" fill="#338AF3"/>
<path d="M24.9998 50.9088C34.9112 50.9088 43.4754 45.1407 47.5191 36.7783H2.48047C6.52422 45.1407 15.0883 50.9088 24.9998 50.9088Z" fill="#338AF3"/>
<path d="M32.4717 25.9089L29.4185 27.3451L31.0443 30.3021L27.7289 29.6678L27.3088 33.017L24.9995 30.5537L22.6901 33.017L22.2701 29.6678L18.9547 30.302L20.5805 27.345L17.5273 25.9089L20.5806 24.4727L18.9547 21.5158L22.27 22.15L22.6902 18.8008L24.9995 21.2641L27.3089 18.8008L27.7289 22.15L31.0444 21.5158L29.4186 24.4728L32.4717 25.9089Z" fill="#FFDA44"/>
</g>
<defs>
<clipPath id="clip0_175_249">
<rect width="50" height="50" fill="white" transform="translate(0 0.90918)"/>
</clipPath>
</defs>
</svg>
