<svg width="50" height="50" viewBox="0 0 50 50" fill="none" xmlns="http://www.w3.org/2000/svg">
<g clip-path="url(#clip0_175_242)">
<path d="M25 50C38.8071 50 50 38.8071 50 25C50 11.1929 38.8071 0 25 0C11.1929 0 0 11.1929 0 25C0 38.8071 11.1929 50 25 50Z" fill="#6DA544"/>
<path d="M24.9998 9.78223L45.652 24.9996L24.9998 40.217L4.34766 24.9996L24.9998 9.78223Z" fill="#FFDA44"/>
<path d="M25.0003 33.6959C29.8027 33.6959 33.6959 29.8027 33.6959 25.0003C33.6959 20.1978 29.8027 16.3047 25.0003 16.3047C20.1978 16.3047 16.3047 20.1978 16.3047 25.0003C16.3047 29.8027 20.1978 33.6959 25.0003 33.6959Z" fill="#F0F0F0"/>
<path d="M20.6517 24.457C19.1396 24.457 17.6803 24.687 16.3066 25.1138C16.3675 29.8638 20.2351 33.6962 24.9995 33.6962C27.9456 33.6962 30.5476 32.2297 32.1205 29.9884C29.4294 26.6195 25.2887 24.457 20.6517 24.457V24.457Z" fill="#0052B4"/>
<path d="M33.534 26.6663C33.6387 26.1269 33.6952 25.5703 33.6952 25.0003C33.6952 20.1978 29.8021 16.3047 24.9996 16.3047C21.4162 16.3047 18.34 18.4728 17.0088 21.5683C18.1855 21.3244 19.4039 21.196 20.6519 21.196C25.7023 21.1959 30.2713 23.2953 33.534 26.6663V26.6663Z" fill="#0052B4"/>
</g>
<defs>
<clipPath id="clip0_175_242">
<rect width="50" height="50" fill="white"/>
</clipPath>
</defs>
</svg>
