<svg width="50" height="50" viewBox="0 0 71 65" fill="none" xmlns="http://www.w3.org/2000/svg">
<g clip-path="url(#clip0_446_495)">
<path d="M35.4062 71.2443C54.8225 71.2443 70.5625 55.5043 70.5625 36.0881C70.5625 16.6718 54.8225 0.931824 35.4062 0.931824C15.99 0.931824 0.25 16.6718 0.25 36.0881C0.25 55.5043 15.99 71.2443 35.4062 71.2443Z" fill="#F0F0F0"/>
<path d="M35.4062 0.931824C15.9901 0.931824 0.25 16.6719 0.25 36.0881C0.25 40.3884 1.02357 44.5079 2.43669 48.3163H68.3759C69.7891 44.5079 70.5625 40.3884 70.5625 36.0881C70.5625 16.6719 54.8224 0.931824 35.4062 0.931824Z" fill="#0052B4"/>
<path d="M35.4062 0.931824C20.2903 0.931824 7.40398 10.4724 2.43665 23.8599H68.3759C63.4084 10.4724 50.5222 0.931824 35.4062 0.931824V0.931824Z" fill="#D80027"/>
<path d="M9.34082 20.8028V38.3405C9.34082 48.3167 22.3735 51.3735 22.3735 51.3735C22.3735 51.3735 35.406 48.3167 35.406 38.3405V20.8028H9.34082Z" fill="#D80027"/>
<path d="M14.7307 23.8598H30.0161V17.7457L26.959 19.2742L22.3735 14.6886L17.7878 19.2742L14.7307 17.7457V23.8598Z" fill="#FFDA44"/>
<path d="M32.3491 40.7824L22.4136 30.8469L12.4781 40.7824L15.7206 44.0249L22.4136 37.3319L29.1066 44.0249L32.3491 40.7824Z" fill="#FFDA44"/>
<path d="M32.3491 31.5025H27.7134C27.9741 31.0526 28.1257 30.5316 28.1257 29.9743C28.1257 28.2857 26.7569 26.9172 25.0686 26.9172C23.902 26.9172 22.8889 27.5706 22.3735 28.5313C21.8581 27.5708 20.8451 26.9172 19.6785 26.9172C17.9901 26.9172 16.6214 28.2857 16.6214 29.9743C16.6214 30.5316 16.773 31.0528 17.0336 31.5025H12.4781C12.4781 33.191 13.9488 34.5596 15.637 34.5596H15.5352C15.5352 36.2481 16.9039 37.6167 18.5923 37.6167C18.5923 39.1116 19.666 40.3537 21.0839 40.6195L18.6751 46.058C19.8295 46.5273 21.091 46.7879 22.4138 46.7879C23.7365 46.7879 24.998 46.5273 26.1524 46.058L23.7437 40.6195C25.1616 40.3539 26.2352 39.1118 26.2352 37.6167C27.9237 37.6167 29.2923 36.2481 29.2923 34.5596H29.1906C30.8786 34.5596 32.3491 33.1908 32.3491 31.5025V31.5025Z" fill="#F0F0F0"/>
</g>
<defs>
<clipPath id="clip0_446_495">
<rect width="70.3125" height="70.3125" fill="white" transform="translate(0.25 0.931824)"/>
</clipPath>
</defs>
</svg>
