<svg width="258" height="90" viewBox="0 0 258 90" fill="none" xmlns="http://www.w3.org/2000/svg">
<path fill-rule="evenodd" clip-rule="evenodd" d="M68.0802 13.1772V10.2544L60.0004 13.2575H59.9851V16.2569H60.0004L68.0802 19.26V16.3334L63.937 14.7496L68.0802 13.1734V13.1772Z" fill="#F7DD43"/>
<path fill-rule="evenodd" clip-rule="evenodd" d="M114.88 19.1146V16.1918L119.019 14.6195L114.88 13.0471V10.1243L122.948 13.1275H122.967V16.1306H122.948L114.88 19.1185V19.1146ZM111.414 5.98878L106.67 21.2188H109.486L114.229 5.98878H111.414Z" fill="#F7DD43"/>
<path fill-rule="evenodd" clip-rule="evenodd" d="M79.9514 9.85264C80.7548 10.7325 81.1756 11.8956 81.1259 13.0853V19.5737H78.3102V13.6821C78.3446 13.0241 78.1342 12.3814 77.721 11.8688C77.3308 11.4135 76.7531 11.161 76.1525 11.1878C74.3889 11.1878 73.5051 12.412 73.5051 14.8566V19.5737H70.6895V8.92301H73.5051V9.88325C74.4004 9.01482 75.6131 8.55192 76.8603 8.60548C78.0233 8.55574 79.148 9.011 79.9514 9.85264V9.85264Z" fill="#F7DD43"/>
<path fill-rule="evenodd" clip-rule="evenodd" d="M84.7144 4.34375V19.5737H87.53V4.34375H84.7144Z" fill="#F7DD43"/>
<path fill-rule="evenodd" clip-rule="evenodd" d="M103.452 19.5737H101.103L98.8003 13.2996L96.4743 19.5737H94.1253L90.1772 8.90393H93.188L95.4069 15.2852L97.6947 8.90393H99.8944L102.182 15.3043L104.401 8.90393H107.412L103.46 19.5737H103.452Z" fill="#F7DD43"/>
<path d="M136.378 25.4348C133.669 25.4348 130.823 24.9215 128.592 23.6853V1.87453C130.788 0.673266 133.634 0.12504 136.378 0.12504C139.121 0.12504 141.9 0.63833 144.093 1.87453V10.243H138.571V4.54847C137.92 4.27436 137.13 4.17224 136.343 4.17224C135.555 4.17224 134.832 4.27436 134.147 4.54847V21.0114C134.797 21.2855 135.553 21.3876 136.343 21.3876C137.133 21.3876 137.885 21.2855 138.571 21.0114V15.3195H144.093V23.688C141.932 24.8893 139.087 25.4026 136.378 25.4375V25.4348Z" fill="#F7DD43"/>
<path d="M154.45 25.4348C151.535 25.4348 148.724 24.8167 146.493 23.5482V1.97661C148.689 0.743098 151.502 0.125 154.45 0.125C157.398 0.125 160.142 0.708162 162.338 1.97661V23.5482C160.177 24.8167 157.331 25.3998 154.45 25.4348ZM156.818 4.6183C156.168 4.34419 155.378 4.20713 154.418 4.20713C153.459 4.20713 152.704 4.34419 152.051 4.6183V20.9092C152.701 21.2183 153.491 21.3553 154.418 21.3553C155.345 21.3553 156.133 21.2183 156.818 20.9092V4.6183Z" fill="#F7DD43"/>
<path d="M171.975 16.1741H170.499V25.1257H164.91V0.434065H171.975C175.337 0.434065 177.874 1.11935 179.862 2.52485V14.0833C177.908 15.4565 175.334 16.1741 171.975 16.1741ZM174.307 4.6855C173.794 4.30927 173.106 4.13728 171.94 4.13728H170.429V12.4709H171.94C173.071 12.4709 173.756 12.2989 174.307 11.9576V4.6855Z" fill="#F7DD43"/>
<path d="M191.555 25.1257V16.1741H187.441V25.1257H181.886V1.94167C183.909 0.740411 186.755 0.125 189.499 0.125C192.243 0.125 195.054 0.743098 197.078 1.94167V25.1257H191.555ZM191.555 4.41138C190.972 4.13726 190.252 4.00021 189.496 4.00021C188.741 4.00021 188.021 4.13726 187.438 4.41138V12.2639H191.552V4.41138H191.555Z" fill="#F7DD43"/>
<path d="M20.5494 67.738H26.7086C26.585 69.7567 26.0288 71.5489 25.04 73.1144C24.065 74.68 22.6986 75.9022 20.9408 76.7811C19.1967 77.66 17.0956 78.0995 14.6374 78.0995C12.7148 78.0995 10.9913 77.7699 9.46692 77.1107C7.94257 76.4378 6.63794 75.4765 5.55304 74.2268C4.48187 72.9771 3.66476 71.4665 3.10172 69.6949C2.53867 67.9234 2.25714 65.939 2.25714 63.7417V61.6612C2.25714 59.4639 2.54553 57.4795 3.12231 55.708C3.71283 53.9227 4.55054 52.4052 5.63544 51.1555C6.73407 49.9058 8.04556 48.9445 9.56992 48.2716C11.0943 47.5987 12.7971 47.2622 14.6786 47.2622C17.1779 47.2622 19.2859 47.7154 21.0026 48.6218C22.7329 49.5282 24.0719 50.7779 25.0194 52.3709C25.9807 53.9639 26.5575 55.7766 26.7498 57.8091H20.57C20.5013 56.6006 20.261 55.5775 19.849 54.7398C19.437 53.8884 18.8122 53.2498 17.9745 52.8241C17.1505 52.3846 16.0518 52.1649 14.6786 52.1649C13.6486 52.1649 12.7491 52.3571 11.98 52.7417C11.211 53.1262 10.5656 53.7098 10.0437 54.4926C9.52185 55.2754 9.13046 56.2642 8.86954 57.4589C8.62234 58.64 8.49875 60.027 8.49875 61.62V63.7417C8.49875 65.2935 8.61548 66.66 8.84894 67.841C9.0824 69.0083 9.43945 69.9971 9.9201 70.8073C10.4145 71.6038 11.0462 72.2081 11.8152 72.6201C12.598 73.0183 13.5387 73.2174 14.6374 73.2174C15.9283 73.2174 16.9926 73.0114 17.8303 72.5995C18.668 72.1875 19.3065 71.5764 19.746 70.7661C20.1992 69.9559 20.467 68.9465 20.5494 67.738ZM42.9615 52.8241L34.8041 77.6875H28.2329L39.3772 47.6948H43.5589L42.9615 52.8241ZM49.7387 77.6875L41.5607 52.8241L40.9016 47.6948H45.1244L56.3305 77.6875H49.7387ZM49.3679 66.5226V71.3635H33.527V66.5226H49.3679ZM78.3924 72.8672V77.6875H63.2931V72.8672H78.3924ZM65.2912 47.6948V77.6875H59.1114V47.6948H65.2912ZM102.061 72.8672V77.6875H86.0966V72.8672H102.061ZM88.1153 47.6948V77.6875H81.9355V47.6948H88.1153ZM99.9805 59.9102V64.6069H86.0966V59.9102H99.9805ZM102.04 47.6948V52.5357H86.0966V47.6948H102.04ZM130.076 47.6948V77.6875H123.896L111.846 57.5825V77.6875H105.666V47.6948H111.846L123.917 67.8204V47.6948H130.076ZM144.661 77.6875H138.131L138.172 72.8672H144.661C146.281 72.8672 147.647 72.5033 148.76 71.7755C149.872 71.0339 150.71 69.9559 151.273 68.5414C151.85 67.1269 152.138 65.4171 152.138 63.4121V61.9496C152.138 60.4115 151.973 59.0588 151.644 57.8915C151.328 56.7242 150.854 55.7423 150.222 54.9458C149.591 54.1493 148.815 53.5519 147.895 53.1537C146.975 52.7417 145.917 52.5357 144.722 52.5357H138.007V47.6948H144.722C146.727 47.6948 148.561 48.0381 150.222 48.7248C151.898 49.3977 153.347 50.3659 154.569 51.6293C155.791 52.8927 156.732 54.4034 157.391 56.1612C158.064 57.9052 158.4 59.8484 158.4 61.9908V63.4121C158.4 65.5407 158.064 67.4839 157.391 69.2418C156.732 70.9996 155.791 72.5102 154.569 73.7736C153.36 75.0233 151.912 75.9915 150.222 76.6781C148.547 77.351 146.693 77.6875 144.661 77.6875ZM141.632 47.6948V77.6875H135.453V47.6948H141.632ZM174.633 52.8241L166.475 77.6875H159.904L171.048 47.6948H175.23L174.633 52.8241ZM181.41 77.6875L173.232 52.8241L172.573 47.6948H176.796L188.002 77.6875H181.41ZM181.039 66.5226V71.3635H165.198V66.5226H181.039ZM171.151 46.0057L175.189 39.6611H181.636L175.972 46.0057H171.151ZM190.783 47.6948H201.968C204.261 47.6948 206.232 48.0381 207.88 48.7248C209.542 49.4114 210.819 50.4277 211.711 51.7735C212.604 53.1193 213.05 54.7741 213.05 56.7379C213.05 58.3447 212.776 59.7249 212.226 60.8784C211.691 62.0182 210.929 62.9727 209.94 63.7417C208.965 64.497 207.818 65.1013 206.5 65.5545L204.543 66.5844H194.82L194.779 61.7642H202.009C203.094 61.7642 203.994 61.5719 204.708 61.1874C205.422 60.8029 205.957 60.2673 206.314 59.5807C206.685 58.894 206.871 58.0975 206.871 57.1911C206.871 56.2298 206.692 55.399 206.335 54.6986C205.978 53.9982 205.436 53.4626 204.708 53.0919C203.98 52.7211 203.067 52.5357 201.968 52.5357H196.962V77.6875H190.783V47.6948ZM207.55 77.6875L200.711 64.3185L207.241 64.2773L214.163 77.3991V77.6875H207.55ZM224.38 47.6948V77.6875H218.221V47.6948H224.38ZM254.805 61.9908V63.4121C254.805 65.6918 254.496 67.738 253.878 69.5508C253.26 71.3635 252.388 72.9084 251.262 74.1856C250.136 75.449 248.79 76.4172 247.225 77.0901C245.673 77.763 243.949 78.0995 242.054 78.0995C240.173 78.0995 238.449 77.763 236.884 77.0901C235.332 76.4172 233.986 75.449 232.846 74.1856C231.707 72.9084 230.821 71.3635 230.189 69.5508C229.571 67.738 229.262 65.6918 229.262 63.4121V61.9908C229.262 59.6974 229.571 57.6512 230.189 55.8522C230.807 54.0394 231.679 52.4945 232.805 51.2173C233.945 49.9402 235.291 48.9651 236.843 48.2922C238.408 47.6193 240.132 47.2828 242.013 47.2828C243.908 47.2828 245.632 47.6193 247.184 48.2922C248.749 48.9651 250.095 49.9402 251.221 51.2173C252.361 52.4945 253.24 54.0394 253.858 55.8522C254.49 57.6512 254.805 59.6974 254.805 61.9908ZM248.564 63.4121V61.9496C248.564 60.3566 248.42 58.9558 248.131 57.7473C247.843 56.5388 247.417 55.5226 246.854 54.6986C246.291 53.8746 245.604 53.2567 244.794 52.8447C243.984 52.4189 243.057 52.2061 242.013 52.2061C240.969 52.2061 240.042 52.4189 239.232 52.8447C238.436 53.2567 237.756 53.8746 237.193 54.6986C236.644 55.5226 236.225 56.5388 235.936 57.7473C235.648 58.9558 235.504 60.3566 235.504 61.9496V63.4121C235.504 64.9914 235.648 66.3922 235.936 67.6144C236.225 68.8229 236.65 69.846 237.214 70.6837C237.777 71.5077 238.463 72.1325 239.273 72.5583C240.084 72.984 241.011 73.1968 242.054 73.1968C243.098 73.1968 244.025 72.984 244.835 72.5583C245.646 72.1325 246.325 71.5077 246.875 70.6837C247.424 69.846 247.843 68.8229 248.131 67.6144C248.42 66.3922 248.564 64.9914 248.564 63.4121Z" fill="url(#paint0_linear_301_3040)"/>
<defs>
<linearGradient id="paint0_linear_301_3040" x1="128.531" y1="36.6875" x2="128.531" y2="89.6875" gradientUnits="userSpaceOnUse">
<stop stop-color="white"/>
<stop offset="1" stop-color="#D9D9D9" stop-opacity="0.8"/>
</linearGradient>
</defs>
</svg>
